<svg width="357" height="715" viewBox="0 0 357 715" fill="none" xmlns="http://www.w3.org/2000/svg">
<g clip-path="url(#clip0_3_2)">
<path d="M28.4484 39.325C28.4484 81.443 28.4484 81.5547 31.4048 93.2852C36.3694 112.78 48.7528 134.621 69.5592 160.763C81.6637 175.957 91.4812 192.436 97.3941 207.518C107.1 232.487 109.22 260.472 102.191 272.594C100.016 276.392 95.1628 281.252 90.4214 284.268C84.4528 288.067 83.2814 288.346 74.4122 288.123C67.3837 287.955 66.7701 288.011 65.9892 289.072C63.8695 291.921 66.8817 300.356 71.0653 303.428C74.2448 305.718 76.9781 306.277 83.393 305.942C89.5289 305.663 92.8758 304.545 98.0076 301.194C102.526 298.289 109.833 290.134 112.901 284.715L115.523 279.967L117.029 280.749C117.866 281.196 119.483 281.531 120.711 281.531C125.564 281.531 128.632 275.052 129.412 263.098C129.97 254.663 129.524 249.468 127.516 241.536C123.555 226.007 116.862 209.64 108.885 196.178C100.741 182.493 94.4376 174.672 76.6434 156.35C62.7539 142.05 57.4547 135.627 49.8126 123.729C37.3734 104.401 31.7953 87.1406 31.7953 68.1484C31.7953 57.2 34.8633 45.8047 40.8319 34.6328C45.127 26.5332 51.9323 18.0984 56.618 14.9703L58.2914 13.8531L56.5622 15.473C51.765 19.8859 44.123 29.9965 41.1108 36.0293C36.5925 45.1344 34.9748 52.6754 35.0306 64.7969C35.1422 83.6774 38.6006 92.6149 55.0003 116.579C64.26 129.985 72.0136 138.643 87.2976 152.384C95.5533 159.87 101.522 164.394 135.827 189.363C182.739 223.493 191.887 230.867 205.777 245.39C216.766 256.953 222.735 264.271 229.372 274.27C239.023 288.849 244.991 303.372 249.007 322.029C251.239 332.196 251.741 338.173 251.406 349.847C251.016 365.544 249.119 375.207 242.314 396.155C237.907 409.673 237.238 411.125 230.209 421.906C216.933 442.183 202.598 459.22 185.752 474.749C182.182 477.989 178.333 481.396 177.217 482.346C175.097 484.077 174.54 485.418 175.99 485.418C176.436 485.418 177.384 484.859 178.165 484.189C178.89 483.463 180.731 481.899 182.182 480.67C183.632 479.441 187.648 475.922 190.995 472.85C198.079 466.426 198.191 466.258 184.915 482.402C167.288 503.852 160.538 513.124 150.609 529.491C136.106 553.511 127.516 578.2 125.452 601.606C124.727 609.817 125.062 626.91 126.066 634.283C127.795 646.907 133.094 665.62 137.835 675.954C145.254 691.93 151.502 701.594 159.479 709.247C162.714 712.375 165.559 715 165.838 715C166.786 715 166.117 713.324 164.332 711.313C163.272 710.084 160.762 707.291 158.753 705.001C156.745 702.711 155.072 700.588 155.072 700.365C155.072 700.086 154.347 698.913 153.454 697.795C151.335 695.114 145.366 683.886 142.131 676.457C137.166 665.173 133.15 651.6 130.751 637.914C129.524 630.82 128.966 604.398 129.97 598.31C131.644 587.697 135.158 575.184 139.565 563.9C145.812 548.036 157.749 527.424 169.798 511.672C176.715 502.567 206.167 466.984 206.781 466.984C206.893 466.984 206.167 468.157 205.163 469.554C204.159 471.006 203.155 472.403 202.932 472.794C202.765 473.129 200.255 477.318 197.41 482.066C184.413 503.852 179.839 512.231 174.093 524.52C167.79 537.982 163.272 550.55 158.865 566.973C157.749 571.218 157.582 573.006 157.582 584.289C157.582 595.908 157.694 597.193 158.865 601.047C160.483 606.242 163.662 612.331 166.005 614.788C168.236 617.19 170.746 617.358 172.141 615.291C173.145 613.783 173.033 612.666 171.081 601.326C169.575 592.445 169.463 575.519 170.858 567.252C174.651 545.188 183.186 522.285 198.079 494.132C203.992 482.96 209.793 472.57 210.072 472.57C210.184 472.57 209.849 473.52 209.347 474.637C207.952 478.045 202.598 495.752 200.812 503.014C197.41 516.755 196.74 522.118 196.796 534.854C196.852 552.058 198.079 558.706 203.657 571.777C212.303 592.221 225.747 607.527 242.481 616.129C250.737 620.43 254.474 621.268 265.463 621.603C279.297 621.938 285.935 620.709 295.027 616.129C300.103 613.559 307.187 608.365 310.813 604.566C316.112 598.924 321.802 588.255 325.707 576.748C328.217 569.263 329.332 562.839 327.882 564.012C327.436 564.403 326.767 566.191 326.376 567.922C325.205 573.173 322.025 581.273 318.065 588.981C313.714 597.36 308.972 602.946 301.721 608.085C286.883 618.531 266.802 621.212 249.788 615.012C230.321 607.862 213.029 588.423 204.104 563.621C201.091 555.242 200.255 549.042 200.255 534.463C200.255 522.173 201.091 515.526 204.494 501.897C205.944 495.92 213.14 473.576 213.475 473.911C213.586 474.023 213.363 475.978 213.029 478.212C212.136 483.966 212.694 496.199 214.144 501.785C216.766 511.951 221.284 517.984 229.372 522.006C233.723 524.184 234.839 524.52 237.851 524.52L241.254 524.464L239.19 523.179C236.178 521.336 234.839 520.051 233.612 517.649C231.771 513.962 231.715 509.661 233.389 505.472C233.723 504.689 233.333 504.634 230.6 504.857C223.181 505.472 218.216 502.623 216.097 496.534C215.204 494.02 215.037 491.898 215.037 484.022L215.092 474.525L218.328 465.029C222.511 452.796 226.026 445.143 234.727 429C244.043 411.684 245.382 408.835 249.007 398.668C254.363 383.586 256.761 372.135 257.821 355.936C258.602 344.206 257.932 334.486 255.534 322.309C250.514 296.948 241.867 278.515 225.468 257.959C219.89 250.976 201.984 231.425 200.31 230.476C199.808 230.197 197.298 228.186 194.677 226.007C180.787 214.332 162.937 201.206 120.209 171.209C103.363 159.367 98.0634 155.345 91.3697 149.2C83.4487 141.939 79.9903 138.029 84.9548 142.05C105.427 158.529 131.421 170.595 157.024 175.51C165.67 177.13 186.756 177.577 197.577 176.292C216.599 174.114 234.449 168.472 245.382 161.21C258.546 152.44 268.977 137.917 274.723 120.377C278.404 109.261 279.129 104.289 279.129 89.375C279.129 76.0246 278.237 68.8188 275.615 60.3281C273.161 52.5078 272.38 53.5692 274.221 62.2832C281.64 98.5918 270.651 135.738 247.167 153.837C233.668 164.227 216.431 170.65 196.964 172.605C187.09 173.555 170.579 173.332 163.327 172.103C156.02 170.818 151 169.757 151.279 169.533C151.39 169.477 153.566 169.589 156.187 169.757C162.379 170.259 172.866 169.589 177.44 168.416C182.293 167.187 191.441 162.718 195.625 159.534C197.521 158.082 200.645 155.233 202.486 153.166C214.144 140.43 218.16 126.801 217.268 103.061C216.822 90.9391 215.204 78.2031 214.144 78.2031C213.865 78.2031 213.642 79.6555 213.642 81.3871C213.642 86.5262 212.136 95.1285 210.574 98.9828C208.51 104.066 206.781 106.412 203.769 108.2C201.538 109.484 200.534 109.708 196.964 109.764C194.007 109.764 192.166 109.484 190.828 108.758C187.648 107.138 187.258 107.473 188.764 110.434C189.489 111.942 190.828 115.852 191.664 119.26C193.17 124.957 193.282 126.13 193.282 136.018C193.282 146.296 193.226 146.743 191.832 149.703C184.859 164.562 165.001 168.919 135.27 162.216C131.923 161.434 127.404 160.596 125.285 160.316C123.165 160.037 121.268 159.59 121.101 159.311C120.934 159.032 120.153 158.585 119.372 158.361C118.591 158.138 114.463 156.183 110.168 153.948C104.534 151.044 99.458 147.804 91.9833 142.274C79.6556 133.225 78.9305 132.554 83.4487 134.118C91.5928 136.911 100.685 138.196 111.841 138.252C119.762 138.252 122.328 138.029 127.181 136.911C137.724 134.565 143.469 131.828 149.94 125.963C161.487 115.461 168.125 99.3738 167.176 84.2918C166.73 77.7563 165.503 73.3434 162.156 66.4727C159.702 61.4453 158.698 59.993 154.905 56.3621C147.932 49.6031 139.509 45.4695 131.421 44.8551C129.245 44.6875 127.627 44.6875 127.795 44.9109C127.962 45.0786 130.082 45.7488 132.536 46.3633C139.788 48.2067 147.876 53.0664 153.175 58.7641C156.522 62.395 160.594 70.2153 161.989 75.5219C163.216 80.3817 163.662 88.4813 162.937 93.2852C160.985 105.742 151.39 119.483 140.792 124.957C135.325 127.806 131.811 128.812 124.838 129.594C107.044 131.493 91.4255 128.365 79.1536 120.545C74.0217 117.249 65.9892 110.211 62.4192 105.798C51.6534 92.6149 47.5814 81.3871 48.0834 66.8078C48.5855 54.5746 51.7092 47.257 60.2437 38.543C66.7144 31.9516 71.2884 28.7117 85.6242 20.3887C100.016 12.0656 102.359 10.334 102.861 7.54102C103.418 4.80389 102.526 3.57501 98.7328 1.67578L95.4417 0H61.9172H28.4484V39.325Z" fill="#A0214C"/>
<path d="M205.721 8.88165C201.259 12.9594 200.032 16.0875 199.976 23.1817C199.976 28.1531 200.143 29.1028 201.426 31.5606C202.263 33.2363 203.769 35.0238 205.219 36.0293C207.227 37.4258 208.064 37.7051 210.853 37.6492C214.702 37.5934 217.268 36.2528 218.941 33.5156C220.392 31.002 220.447 23.7403 219.053 20.5004C218.272 18.657 217.937 18.4336 216.208 18.4336C213.81 18.4336 212.471 20.1094 211.132 24.8574C209.459 30.5551 208.901 31.393 206.502 31.1695C203.546 30.9461 202.932 29.4379 203.211 23.1817C203.378 17.6516 204.661 14.2442 208.12 9.60783C209.403 7.98791 209.793 7.09415 209.347 6.64728C208.957 6.25626 207.841 6.92658 205.721 8.88165Z" fill="#A0214C"/>
<path d="M193.394 251.2C193.617 251.758 195.513 255.333 197.689 259.188C205.554 273.32 210.016 284.045 212.248 294.379C213.698 301.026 213.977 314.377 212.805 320.689C208.789 342.753 198.191 356.271 183.52 358.226C175.432 359.288 168.292 357.612 164.22 353.702C158.921 348.674 156.745 342.921 156.745 334.207C156.745 320.856 161.431 313.092 174.874 304.21C180.508 300.468 181.233 299.741 181.289 297.675C181.289 295.105 179.002 293.597 174.707 293.374C169.687 293.094 167.065 293.876 162.1 297.228C155.239 301.808 149.996 308.623 147.207 316.723C146.035 319.963 145.924 321.415 145.924 329.57C145.924 339.96 146.537 343.256 149.828 349.959C153.677 357.891 158.977 362.918 166.73 365.991C169.352 367.052 170.914 367.22 176.827 367.22C184.692 367.22 187.927 366.382 194.063 362.807C201.315 358.561 206.67 352.249 211.188 342.753C215.929 332.754 217.882 321.638 217.38 307.338C217.101 298.066 215.818 291.698 212.303 282.425C209.682 275.554 202.542 262.427 198.302 256.674C196.015 253.602 194.119 250.92 194.119 250.641C194.119 250.418 193.896 250.25 193.561 250.25C193.282 250.25 193.226 250.697 193.394 251.2Z" fill="#A0214C"/>
<path d="M107.212 430.62C104.701 431.905 102.303 435.647 101.522 439.334C100.462 444.473 102.303 451.623 105.538 454.472C108.439 457.097 111.284 458.605 113.347 458.605C115.858 458.605 116.192 457.768 113.85 457.321C111.451 456.818 107.602 453.578 106.152 450.841C104.032 446.763 104.534 439.948 107.267 436.932C109.387 434.642 109.889 435.312 109.889 440.395C109.889 445.143 110.503 447.88 111.73 448.663C112.845 449.389 116.527 449.165 118.145 448.327C121.659 446.484 123.555 442.965 122.998 439.278C122.607 436.373 119.874 432.184 117.475 430.676C115.077 429.223 109.833 429.168 107.212 430.62Z" fill="#A0214C"/>
<path d="M288.501 505.36C284.484 509.158 283.146 512.398 283.09 518.431C283.09 522.676 283.257 523.57 284.763 526.475C287.106 531.055 288.668 532.061 293.354 532.061C296.589 532.061 297.537 531.837 299.88 530.385C303.562 528.095 305.291 524.911 305.291 520.609C305.235 515.191 302.948 512.231 298.597 511.839C295.194 511.56 293.298 512.566 292.461 515.023C291.513 517.761 291.569 522.285 292.573 524.184C293.688 526.363 293.632 526.754 292.071 526.754C290.62 526.754 287.552 523.682 286.66 521.336C285.879 519.269 286.046 513.013 286.995 510.834C287.441 509.717 289.058 507.482 290.676 505.807C293.019 503.293 293.354 502.734 292.461 502.734C291.792 502.734 290.062 503.907 288.501 505.36Z" fill="#A0214C"/>
<path d="M228.368 638.249C229.875 639.757 231.548 641.992 232.106 643.221C233.277 645.734 233.5 651.432 232.608 653.89C232.273 654.728 232.106 655.51 232.273 655.622C232.385 655.733 234.225 656.124 236.289 656.404C242.927 657.353 246.888 660.09 248.282 664.782C249.286 668.246 248.896 681.205 247.613 686.791C245.995 693.997 245.716 695.673 246.442 695.226C247.278 694.723 249.733 686.847 250.848 681.205C251.406 678.524 251.741 673.943 251.741 669.754C251.741 663.833 251.518 662.045 250.235 657.856C248.561 652.27 246.609 648.081 244.21 645.064C241.198 641.21 233.612 636.965 227.811 635.959L225.635 635.512L228.368 638.249Z" fill="#A0214C"/>
</g>
<defs>
<clipPath id="clip0_3_2">
<rect width="357" height="715" fill="white"/>
</clipPath>
</defs>
</svg>
