<svg width="301" height="715" viewBox="0 0 301 715" fill="none" xmlns="http://www.w3.org/2000/svg">
<path d="M300.078 675.675C300.078 633.557 300.078 633.445 297.122 621.715C292.157 602.22 279.774 580.379 258.967 554.237C246.863 539.043 237.045 522.565 231.132 507.482C221.426 482.513 219.307 454.528 226.335 442.406C228.511 438.608 233.364 433.748 238.105 430.732C244.074 426.933 245.245 426.654 254.114 426.877C261.143 427.045 261.756 426.989 262.537 425.928C264.657 423.079 261.645 414.644 257.461 411.572C254.282 409.282 251.548 408.723 245.133 409.058C238.998 409.338 235.651 410.455 230.519 413.806C226 416.711 218.693 424.866 215.625 430.285L213.003 435.033L211.497 434.251C210.661 433.804 209.043 433.469 207.816 433.469C202.963 433.469 199.895 439.948 199.114 451.902C198.556 460.337 199.002 465.532 201.01 473.464C204.971 488.993 211.665 505.36 219.641 518.822C227.785 532.507 234.089 540.328 251.883 558.65C265.773 572.95 271.072 579.373 278.714 591.272C291.153 610.599 296.731 627.859 296.731 646.852C296.731 657.8 293.663 669.195 287.695 680.367C283.399 688.467 276.594 696.902 271.908 700.03L270.235 701.147L271.964 699.527C276.761 695.114 284.403 685.004 287.416 678.971C291.934 669.866 293.552 662.325 293.496 650.203C293.384 631.323 289.926 622.385 273.526 598.422C264.266 585.015 256.513 576.357 241.229 562.616C232.973 555.13 227.005 550.606 192.699 525.637C145.787 491.507 136.639 484.133 122.749 469.61C111.76 458.047 105.792 450.729 99.1539 440.73C89.5038 426.151 83.5352 411.628 79.5189 392.971C77.2877 382.804 76.7856 376.827 77.1203 365.153C77.5108 349.456 79.4074 339.793 86.2127 318.845C90.6194 305.327 91.2888 303.875 98.3172 293.094C111.593 272.817 125.929 255.78 142.775 240.251C146.345 237.011 150.194 233.604 151.309 232.654C153.429 230.923 153.987 229.582 152.537 229.582C152.09 229.582 151.142 230.141 150.361 230.811C149.636 231.537 147.795 233.101 146.345 234.33C144.895 235.559 140.878 239.078 137.531 242.15C130.447 248.574 130.336 248.742 143.612 232.598C161.238 211.148 167.988 201.876 177.917 185.509C192.42 161.489 201.01 136.8 203.074 113.395C203.8 105.183 203.465 88.0902 202.461 80.7168C200.732 68.0926 195.432 49.3797 190.691 39.0457C183.272 23.0699 177.025 13.4063 169.048 5.75352C165.813 2.62539 162.968 0 162.689 0C161.74 0 162.41 1.67578 164.195 3.68672C165.255 4.91563 167.765 7.70859 169.773 9.99883C171.781 12.2891 173.455 14.4117 173.455 14.6352C173.455 14.9145 174.18 16.0875 175.072 17.2047C177.192 19.8859 183.16 31.1137 186.396 38.543C191.36 49.8266 195.377 63.4004 197.775 77.0859C199.002 84.1801 199.56 110.602 198.556 116.69C196.883 127.304 193.368 139.816 188.962 151.1C182.714 166.964 170.777 187.576 158.728 203.328C151.811 212.433 122.359 248.016 121.745 248.016C121.634 248.016 122.359 246.843 123.363 245.446C124.367 243.994 125.371 242.597 125.594 242.206C125.762 241.871 128.272 237.682 131.117 232.934C144.114 211.148 148.688 202.77 154.433 190.48C160.736 177.018 165.255 164.45 169.661 148.027C170.777 143.782 170.944 141.995 170.944 130.711C170.944 119.092 170.833 117.807 169.661 113.953C168.044 108.758 164.864 102.67 162.521 100.212C160.29 97.8098 157.78 97.6422 156.385 99.709C155.381 101.217 155.493 102.334 157.445 113.674C158.951 122.555 159.063 139.481 157.668 147.748C153.875 169.813 145.341 192.715 130.447 220.868C124.534 232.04 118.733 242.43 118.454 242.43C118.343 242.43 118.677 241.48 119.179 240.363C120.574 236.955 125.929 219.248 127.714 211.986C131.117 198.245 131.786 192.882 131.73 180.146C131.674 162.942 130.447 156.295 124.869 143.223C116.223 122.779 102.78 107.473 86.0453 98.8711C77.7897 94.5699 74.0524 93.732 63.0635 93.3969C49.2297 93.0617 42.5917 94.2906 33.4994 98.8711C28.4233 101.441 21.3391 106.636 17.7133 110.434C12.4141 116.076 6.7244 126.745 2.8197 138.252C0.30954 145.737 -0.806061 152.161 0.644226 150.988C1.09048 150.597 1.75986 148.809 2.15033 147.078C3.32175 141.827 6.50128 133.727 10.4617 126.019C14.8127 117.64 19.5541 112.054 26.8056 106.915C41.6435 96.4691 61.7247 93.7879 78.738 99.9883C98.2056 107.138 115.498 126.577 124.423 151.379C127.435 159.758 128.272 165.958 128.272 180.538C128.272 192.827 127.435 199.474 124.032 213.104C122.582 219.08 115.386 241.424 115.052 241.089C114.94 240.977 115.163 239.022 115.498 236.788C116.39 231.034 115.833 218.801 114.382 213.215C111.76 203.049 107.242 197.016 99.1539 192.994C94.803 190.816 93.6874 190.48 90.6752 190.48L87.2725 190.536L89.3364 191.821C92.3486 193.664 93.6874 194.949 94.9146 197.351C96.7553 201.038 96.8111 205.339 95.1377 209.529C94.803 210.311 95.1935 210.366 97.9267 210.143C105.346 209.529 110.31 212.377 112.43 218.466C113.322 220.98 113.49 223.102 113.49 230.979L113.434 240.475L110.199 249.971C106.015 262.204 102.501 269.857 93.7989 286C84.4835 303.316 83.1447 306.165 79.5189 316.332C74.1639 331.414 71.7653 342.865 70.7055 359.064C69.9246 370.795 70.5939 380.514 72.9925 392.691C78.0128 418.052 86.6589 436.485 103.059 457.041C108.637 464.024 126.543 483.575 128.216 484.524C128.718 484.804 131.228 486.814 133.85 488.993C147.739 500.668 165.589 513.795 208.318 543.791C225.164 555.633 230.463 559.655 237.157 565.8C245.078 573.061 248.536 576.972 243.572 572.95C223.1 556.471 197.106 544.406 171.502 539.49C162.856 537.87 141.771 537.423 130.949 538.708C111.928 540.886 94.0778 546.528 83.1447 553.79C69.9803 562.56 59.5492 577.083 53.8038 594.623C50.1222 605.739 49.397 610.711 49.397 625.625C49.397 638.975 50.2896 646.181 52.9113 654.672C55.3656 662.492 56.1466 661.431 54.3058 652.717C46.8869 616.408 57.8758 579.262 81.3597 561.163C94.8588 550.773 112.095 544.35 131.563 542.395C141.436 541.445 157.947 541.668 165.199 542.897C172.506 544.182 177.527 545.243 177.248 545.467C177.136 545.523 174.961 545.411 172.339 545.243C166.147 544.741 155.66 545.411 151.086 546.584C146.233 547.813 137.085 552.282 132.902 555.466C131.005 556.918 127.881 559.767 126.04 561.834C114.382 574.57 110.366 588.199 111.258 611.94C111.705 624.061 113.322 636.797 114.382 636.797C114.661 636.797 114.884 635.345 114.884 633.613C114.884 628.474 116.39 619.872 117.952 616.017C120.016 610.934 121.745 608.588 124.758 606.8C126.989 605.516 127.993 605.292 131.563 605.236C134.519 605.236 136.36 605.516 137.699 606.242C140.878 607.862 141.269 607.527 139.763 604.566C139.038 603.058 137.699 599.148 136.862 595.74C135.356 590.043 135.244 588.87 135.244 578.982C135.244 568.704 135.3 568.257 136.695 565.297C143.667 550.438 163.525 546.081 193.257 552.784C196.604 553.566 201.122 554.404 203.242 554.684C205.361 554.963 207.258 555.41 207.425 555.689C207.593 555.968 208.374 556.415 209.155 556.639C209.936 556.862 214.063 558.817 218.358 561.052C223.992 563.956 229.068 567.196 236.543 572.726C248.871 581.775 249.596 582.446 245.078 580.882C236.934 578.089 227.841 576.804 216.685 576.748C208.764 576.748 206.198 576.972 201.345 578.089C190.803 580.435 185.057 583.172 178.586 589.037C167.04 599.539 160.402 615.626 161.35 630.708C161.796 637.244 163.023 641.657 166.37 648.527C168.825 653.555 169.829 655.007 173.622 658.638C180.595 665.397 189.018 669.531 197.106 670.145C199.281 670.313 200.899 670.313 200.732 670.089C200.564 669.922 198.445 669.251 195.99 668.637C188.739 666.793 180.65 661.934 175.351 656.236C172.004 652.605 167.932 644.785 166.538 639.478C165.311 634.618 164.864 626.519 165.589 621.715C167.542 609.258 177.136 595.517 187.735 590.043C193.201 587.194 196.715 586.188 203.688 585.406C221.482 583.507 237.101 586.635 249.373 594.456C254.505 597.751 262.537 604.789 266.107 609.202C276.873 622.385 280.945 633.613 280.443 648.192C279.941 660.425 276.817 667.743 268.283 676.457C261.812 683.048 257.238 686.288 242.902 694.611C228.511 702.934 226.168 704.666 225.666 707.459C225.108 710.196 226 711.425 229.794 713.324L233.085 715H266.609H300.078V675.675Z" fill="#A0214C"/>
<path d="M122.805 706.118C127.268 702.041 128.495 698.913 128.551 691.818C128.551 686.847 128.383 685.897 127.1 683.439C126.264 681.764 124.758 679.976 123.307 678.971C121.299 677.574 120.462 677.295 117.673 677.351C113.824 677.407 111.258 678.747 109.585 681.484C108.135 683.998 108.079 691.26 109.473 694.5C110.254 696.343 110.589 696.566 112.318 696.566C114.717 696.566 116.056 694.891 117.394 690.143C119.068 684.445 119.626 683.607 122.024 683.831C124.981 684.054 125.594 685.562 125.315 691.818C125.148 697.348 123.865 700.756 120.407 705.392C119.124 707.012 118.733 707.906 119.179 708.353C119.57 708.744 120.686 708.073 122.805 706.118Z" fill="#A0214C"/>
<path d="M135.133 463.8C134.91 463.242 133.013 459.667 130.838 455.812C122.972 441.68 118.51 430.955 116.279 420.621C114.828 413.974 114.55 400.623 115.721 394.311C119.737 372.247 130.336 358.729 145.006 356.774C153.094 355.712 160.234 357.388 164.306 361.298C169.606 366.326 171.781 372.079 171.781 380.793C171.781 394.144 167.095 401.908 153.652 410.79C148.018 414.532 147.293 415.259 147.237 417.325C147.237 419.895 149.524 421.403 153.82 421.627C158.84 421.906 161.462 421.124 166.426 417.772C173.287 413.192 178.531 406.377 181.32 398.277C182.491 395.037 182.603 393.585 182.603 385.43C182.603 375.04 181.989 371.744 178.698 365.041C174.849 357.109 169.55 352.082 161.796 349.009C159.175 347.948 157.613 347.78 151.7 347.78C143.835 347.78 140.599 348.618 134.463 352.193C127.212 356.439 121.857 362.751 117.339 372.247C112.597 382.246 110.645 393.362 111.147 407.662C111.426 416.934 112.709 423.302 116.223 432.575C118.845 439.446 125.985 452.573 130.224 458.326C132.511 461.398 134.408 464.08 134.408 464.359C134.408 464.582 134.631 464.75 134.965 464.75C135.244 464.75 135.3 464.303 135.133 463.8Z" fill="#A0214C"/>
<path d="M221.315 284.38C223.825 283.095 226.224 279.353 227.005 275.666C228.064 270.527 226.224 263.377 222.988 260.528C220.088 257.903 217.243 256.395 215.179 256.395C212.669 256.395 212.334 257.232 214.677 257.679C217.076 258.182 220.924 261.422 222.375 264.159C224.494 268.237 223.992 275.052 221.259 278.068C219.139 280.358 218.637 279.688 218.637 274.605C218.637 269.857 218.024 267.12 216.797 266.338C215.681 265.611 211.999 265.835 210.382 266.673C206.868 268.516 204.971 272.035 205.529 275.722C205.919 278.627 208.653 282.816 211.051 284.324C213.45 285.777 218.693 285.832 221.315 284.38Z" fill="#A0214C"/>
<path d="M40.0257 209.64C44.042 205.842 45.3807 202.602 45.4365 196.569C45.4365 192.324 45.2692 191.43 43.7631 188.525C41.4203 183.945 39.8584 182.939 35.1728 182.939C31.9375 182.939 30.9892 183.163 28.6464 184.615C24.9648 186.905 23.2356 190.089 23.2356 194.391C23.2914 199.809 25.5784 202.77 29.9293 203.161C33.332 203.44 35.2286 202.434 36.0653 199.977C37.0136 197.239 36.9578 192.715 35.9537 190.816C34.8381 188.637 34.8939 188.246 36.4557 188.246C37.9061 188.246 40.974 191.318 41.8665 193.664C42.6475 195.731 42.4801 201.988 41.5318 204.166C41.0856 205.283 39.4679 207.518 37.8503 209.193C35.5075 211.707 35.1728 212.266 36.0653 212.266C36.7346 212.266 38.4639 211.093 40.0257 209.64Z" fill="#A0214C"/>
<path d="M100.158 76.7508C98.6519 75.2426 96.9784 73.0082 96.4206 71.7793C95.2492 69.2656 95.0261 63.568 95.9186 61.1102C96.2533 60.2723 96.4206 59.4902 96.2533 59.3785C96.1417 59.2668 94.3009 58.8758 92.237 58.5965C85.599 57.6469 81.6386 54.9098 80.244 50.2176C79.24 46.7543 79.6305 33.7949 80.9134 28.209C82.5311 21.0031 82.81 19.3274 82.0848 19.7742C81.2481 20.277 78.7937 28.1531 77.6781 33.7949C77.1203 36.4762 76.7856 41.0567 76.7856 45.2461C76.7856 51.1672 77.0087 52.9547 78.2917 57.1442C79.9651 62.7301 81.9175 66.9195 84.3161 69.936C87.3283 73.7902 94.9145 78.0356 100.716 79.041L102.891 79.4879L100.158 76.7508Z" fill="#A0214C"/>
</svg>
